<svg width="54" height="54" viewBox="0 0 54 54" fill="none" xmlns="http://www.w3.org/2000/svg">
<rect width="54" height="54" fill="white"/>
<rect x="2.5" y="2.5" width="49" height="49" stroke="#002FD6" stroke-width="5"/>
<path d="M38.4258 27.6992C38.4258 30.4857 37.957 32.9206 37.0195 35.0039C36.082 37.0742 34.7539 38.6562 33.0352 39.75C31.3164 40.8438 29.3112 41.3906 27.0195 41.3906C24.7799 41.3906 22.7943 40.8438 21.0625 39.75C19.3307 38.6432 17.9831 37.0742 17.0195 35.043C16.069 32.9987 15.5807 30.6354 15.5547 27.9531V25.9023C15.5547 23.168 16.0299 20.7526 16.9805 18.6562C17.931 16.5599 19.2721 14.9583 21.0039 13.8516C22.7487 12.7318 24.7409 12.1719 26.9805 12.1719C29.2591 12.1719 31.2643 12.7253 32.9961 13.832C34.7409 14.9258 36.082 16.5208 37.0195 18.6172C37.957 20.7005 38.4258 23.1289 38.4258 25.9023V27.6992ZM34.6953 25.8633C34.6953 22.4909 34.0182 19.9062 32.6641 18.1094C31.3099 16.2995 29.4154 15.3945 26.9805 15.3945C24.6107 15.3945 22.7422 16.2995 21.375 18.1094C20.0208 19.9062 19.3242 22.4062 19.2852 25.6094V27.6992C19.2852 30.9674 19.9688 33.5391 21.3359 35.4141C22.7161 37.276 24.6107 38.207 27.0195 38.207C29.4414 38.207 31.3164 37.3281 32.6445 35.5703C33.9727 33.7995 34.6562 31.2669 34.6953 27.9727V25.8633Z" fill="#002FD6"/>
</svg>
