<svg width="217" height="29" viewBox="0 0 217 29" fill="none" xmlns="http://www.w3.org/2000/svg">
<rect width="217" height="29" fill="white"/>
<path d="M25.3906 15.0293C25.3906 17.5371 24.9688 19.7285 24.125 21.6035C23.2812 23.4668 22.0859 24.8906 20.5391 25.875C18.9922 26.8594 17.1875 27.3516 15.125 27.3516C13.1094 27.3516 11.3223 26.8594 9.76367 25.875C8.20508 24.8789 6.99219 23.4668 6.125 21.6387C5.26953 19.7988 4.83008 17.6719 4.80664 15.2578V13.4121C4.80664 10.9512 5.23438 8.77734 6.08984 6.89062C6.94531 5.00391 8.15234 3.5625 9.71094 2.56641C11.2812 1.55859 13.0742 1.05469 15.0898 1.05469C17.1406 1.05469 18.9453 1.55273 20.5039 2.54883C22.0742 3.5332 23.2812 4.96875 24.125 6.85547C24.9688 8.73047 25.3906 10.916 25.3906 13.4121V15.0293ZM22.0332 13.377C22.0332 10.3418 21.4238 8.01562 20.2051 6.39844C18.9863 4.76953 17.2812 3.95508 15.0898 3.95508C12.957 3.95508 11.2754 4.76953 10.0449 6.39844C8.82617 8.01562 8.19922 10.2656 8.16406 13.1484V15.0293C8.16406 17.9707 8.7793 20.2852 10.0098 21.9727C11.252 23.6484 12.957 24.4863 15.125 24.4863C17.3047 24.4863 18.9922 23.6953 20.1875 22.1133C21.3828 20.5195 21.998 18.2402 22.0332 15.2754V13.377ZM34.8125 1.40625L43.1797 22.2891L51.5469 1.40625H55.9238V27H52.5488V17.0332L52.8652 6.27539L44.4629 27H41.8789L33.4941 6.32812L33.8281 17.0332V27H30.4531V1.40625H34.8125ZM76.332 20.3203H65.6094L63.2012 27H59.7207L69.4941 1.40625H72.4473L82.2383 27H78.7754L76.332 20.3203ZM66.6289 17.543H75.3301L70.9707 5.57227L66.6289 17.543ZM95.0703 16.6465H89.0586V27H85.666V1.40625H94.1387C97.0215 1.40625 99.2363 2.0625 100.783 3.375C102.342 4.6875 103.121 6.59766 103.121 9.10547C103.121 10.6992 102.688 12.0879 101.82 13.2715C100.965 14.4551 99.7695 15.3398 98.2344 15.9258L104.246 26.7891V27H100.625L95.0703 16.6465ZM89.0586 13.8867H94.2441C95.9199 13.8867 97.25 13.4531 98.2344 12.5859C99.2305 11.7188 99.7285 10.5586 99.7285 9.10547C99.7285 7.52344 99.2539 6.31055 98.3047 5.4668C97.3672 4.62305 96.0078 4.19531 94.2266 4.18359H89.0586V13.8867Z" fill="black"/>
<path d="M122 20.3203H111.277L108.869 27H105.389L115.162 1.40625H118.115L127.906 27H124.443L122 20.3203ZM112.297 17.543H120.998L116.639 5.57227L112.297 17.543ZM131.352 27V1.40625H139.719C142.496 1.40625 144.582 1.98047 145.977 3.12891C147.383 4.27734 148.086 5.97656 148.086 8.22656C148.086 9.42188 147.746 10.4824 147.066 11.4082C146.387 12.3223 145.461 13.0312 144.289 13.5352C145.672 13.9219 146.762 14.6602 147.559 15.75C148.367 16.8281 148.771 18.1172 148.771 19.6172C148.771 21.9141 148.027 23.7188 146.539 25.0312C145.051 26.3438 142.947 27 140.229 27H131.352ZM134.727 15.0293V24.2402H140.299C141.869 24.2402 143.105 23.8359 144.008 23.0273C144.922 22.207 145.379 21.082 145.379 19.6523C145.379 16.5703 143.703 15.0293 140.352 15.0293H134.727ZM134.727 12.3223H139.824C141.301 12.3223 142.479 11.9531 143.357 11.2148C144.248 10.4766 144.693 9.47461 144.693 8.20898C144.693 6.80273 144.283 5.7832 143.463 5.15039C142.643 4.50586 141.395 4.18359 139.719 4.18359H134.727V12.3223ZM153.781 27V1.40625H161.006C163.232 1.40625 165.201 1.89844 166.912 2.88281C168.623 3.86719 169.941 5.26758 170.867 7.08398C171.805 8.90039 172.279 10.9863 172.291 13.3418V14.9766C172.291 17.3906 171.822 19.5059 170.885 21.3223C169.959 23.1387 168.629 24.5332 166.895 25.5059C165.172 26.4785 163.162 26.9766 160.865 27H153.781ZM157.156 4.18359V24.2402H160.707C163.309 24.2402 165.33 23.4316 166.771 21.8145C168.225 20.1973 168.951 17.8945 168.951 14.9062V13.4121C168.951 10.5059 168.266 8.25 166.895 6.64453C165.535 5.02734 163.602 4.20703 161.094 4.18359H157.156ZM191.873 15.1699H180.781V24.2402H193.666V27H177.406V1.40625H193.49V4.18359H180.781V12.4102H191.873V15.1699ZM201.26 24.2402H213.389V27H197.867V1.40625H201.26V24.2402Z" fill="#141DE8"/>
</svg>
